# xmcd
#
# Track frame offsets: 
#        150
#        14949
#        27402
#        42292
#        56216
#        70162
#        84324
#        99789
#        113070
#        127252
#        139851
#        155368
#        167610
#        179623
#
# Disc length: 2597 seconds
#
# Revision: 0
# Processed by: cddbd v1.5.2PL0 Copyright (c) Steve Scherf et al.
# Submitted via: ExactAudioCopy v0.95b3
#
DISCID=c20a230e
DTITLE=Various Artist - Mr Music Country 2005-03
DYEAR=2005
DGENRE=Country
TTITLE0=Jamie Richards - They've Never Been To Texas
TTITLE1=Billy Yates - This Song Does't Rock
TTITLE2=The Kandalls - If You Let Him Drive You Crazy (He Will)
TTITLE3=Phillip McCurry - Here' Lookin' At You
TTITLE4=Shane Worley - Big City
TTITLE5=Conway Twitty - You've Never Been This Far Before
TTITLE6=Holly Dunn - Daddy's Hands
TTITLE7=Merle Haggard - Farmer's Daughter
TTITLE8=Lee Greenwood - Dixie Road
TTITLE9=Lasse Stefanz - Wait A Minute
TTITLE10=Sanger D. "Whitey" Shafer - Does Fort Worth Ever Cross Your M
TTITLE10=ind
TTITLE11=Tammy Malone - Cowgirl
TTITLE12=Ricky Calmbach - You're Not Waitin' At Home Anymore
TTITLE13=Ed Bryce - Mammas Don't Let Your Babies Grow Up To Be Cowboys
EXTD=
EXTT0=
EXTT1=
EXTT2=
EXTT3=
EXTT4=
EXTT5=
EXTT6=
EXTT7=
EXTT8=
EXTT9=
EXTT10=
EXTT11=
EXTT12=
EXTT13=
PLAYORDER=
